<?xml version="1.0" encoding="utf-8"?>
<!-- Generator: Adobe Illustrator 15.0.0, SVG Export Plug-In . SVG Version: 6.00 Build 0)  -->
<!DOCTYPE svg PUBLIC "-//W3C//DTD SVG 1.1//EN" "http://www.w3.org/Graphics/SVG/1.1/DTD/svg11.dtd">
<svg version="1.1" xmlns="http://www.w3.org/2000/svg" xmlns:xlink="http://www.w3.org/1999/xlink" x="0px" y="0px" width="80px"
	 height="80px" viewBox="0 0 80 80" enable-background="new 0 0 80 80" xml:space="preserve">
<g id="DO_NOT_EDIT_-_BOUNDING_BOX">
	<rect id="BOUNDING_BOX" fill="none" width="80" height="80"/>
</g>
<g id="WHITE_x2F_GREY_BACKGROUNDS" display="none">
	<path id="GREY4_2_" display="inline" fill="#515151" d="M79,40c0,28.893-10.105,39-39,39S1,68.893,1,40C1,11.106,11.105,1,40,1
		S79,11.106,79,40z"/>
	<path id="GREY3_2_" fill="#7C7C7C" d="M79,40c0,28.893-10.105,39-39,39S1,68.893,1,40C1,11.106,11.105,1,40,1S79,11.106,79,40z"/>
	<path id="GREY2_2_" fill="#9E9E9E" d="M79,40c0,28.893-10.105,39-39,39S1,68.893,1,40C1,11.106,11.105,1,40,1S79,11.106,79,40z"/>
	<path id="GREY1_2_" fill="#A3A8AB" d="M79,40c0,28.893-10.105,39-39,39S1,68.893,1,40C1,11.106,11.105,1,40,1S79,11.106,79,40z"/>
	<linearGradient id="WHITE_1_" gradientUnits="userSpaceOnUse" x1="39.9995" y1="-5.0801" x2="39.9995" y2="75.0701">
		<stop  offset="0" style="stop-color:#FFFFFF"/>
		<stop  offset="0.2886" style="stop-color:#FCFCFC"/>
		<stop  offset="0.5203" style="stop-color:#F2F2F2"/>
		<stop  offset="0.7322" style="stop-color:#E1E1E1"/>
		<stop  offset="0.9313" style="stop-color:#C9C9C9"/>
		<stop  offset="1" style="stop-color:#BFBFBF"/>
	</linearGradient>
	<path id="WHITE_2_" fill="url(#WHITE_1_)" d="M79,40c0,28.893-10.105,39-39,39S1,68.893,1,40C1,11.106,11.105,1,40,1
		S79,11.106,79,40z"/>
</g>
<g id="ORANGE_x2F_YELLOW_BACKGROUNDS">
	<path id="ORANGE3_1_" fill="#E8631F" d="M79,40c0,28.893-10.105,39-39,39S1,68.893,1,40C1,11.106,11.105,1,40,1S79,11.106,79,40z"
		/>
	<path id="ORANGE2_1_" display="none" fill="#F78500" d="M79,40c0,28.893-10.105,39-39,39S1,68.893,1,40C1,11.106,11.105,1,40,1
		S79,11.106,79,40z"/>
	<path id="ORANGE1_1_" display="none" fill="#E69600" d="M79,40c0,28.893-10.105,39-39,39S1,68.893,1,40C1,11.106,11.105,1,40,1
		S79,11.106,79,40z"/>
	<path id="YELLOW1_1_" display="none" fill="#F7ED76" d="M79,40c0,28.893-10.105,39-39,39S1,68.893,1,40C1,11.106,11.105,1,40,1
		S79,11.106,79,40z"/>
</g>
<g id="VIOLET_x2F_PINK_BACKGROUNDS" display="none">
	<path id="PINK2_2_" display="inline" fill="#DE11A6" d="M79,40c0,28.893-10.105,39-39,39S1,68.893,1,40C1,11.106,11.105,1,40,1
		S79,11.106,79,40z"/>
	<path id="PINK1_2_" fill="#C20FC1" d="M79,40c0,28.893-10.105,39-39,39S1,68.893,1,40C1,11.106,11.105,1,40,1S79,11.106,79,40z"/>
	<path id="VIOLET2_2_" fill="#9501C5" d="M79,40c0,28.893-10.105,39-39,39S1,68.893,1,40C1,11.106,11.105,1,40,1S79,11.106,79,40z"
		/>
	<path id="VIOLET1_2_" fill="#6401BA" d="M79,40c0,28.893-10.105,39-39,39S1,68.893,1,40C1,11.106,11.105,1,40,1S79,11.106,79,40z"
		/>
</g>
<g id="BLUE_BACKGROUNDS" display="none">
	<path id="BLUE4_2_" display="inline" fill="#124191" d="M79,40c0,28.893-10.105,39-39,39S1,68.893,1,40C1,11.106,11.105,1,40,1
		S79,11.106,79,40z"/>
	<path id="BLUE3_1_" fill="#2D65C2" d="M79,40c0,28.893-10.105,39-39,39S1,68.893,1,40C1,11.106,11.105,1,40,1S79,11.106,79,40z"/>
	<path id="BLUE2_2_" fill="#0088AF" d="M79,40c0,28.893-10.105,39-39,39S1,68.893,1,40C1,11.106,11.105,1,40,1S79,11.106,79,40z"/>
	<path id="BLUE1_2_" fill="#047DC9" d="M79,40c0,28.893-10.105,39-39,39S1,68.893,1,40C1,11.106,11.105,1,40,1S79,11.106,79,40z"/>
</g>
<g id="GREEN_BACKGROUNDS" display="none">
	<path id="GREEN3_1_" display="inline" fill="#247800" d="M79,40c0,28.893-10.105,39-39,39S1,68.893,1,40C1,11.106,11.105,1,40,1
		S79,11.106,79,40z"/>
	<path id="GREEN2_1_" fill="#498800" d="M79,40c0,28.893-10.105,39-39,39S1,68.893,1,40C1,11.106,11.105,1,40,1S79,11.106,79,40z"/>
	<path id="GREEN1_2_" fill="#6EB600" d="M79,40c0,28.893-10.105,39-39,39S1,68.893,1,40C1,11.106,11.105,1,40,1S79,11.106,79,40z"/>
</g>
<g id="DO_NOT_EDIT_-_HIGHLIGHT">
	<defs>
		<filter id="Adobe_OpacityMaskFilter" filterUnits="userSpaceOnUse" x="1.023" y="1" width="77.953" height="78">
			<feFlood  style="flood-color:white;flood-opacity:1" result="back"/>
			<feBlend  in="SourceGraphic" in2="back" mode="normal"/>
		</filter>
	</defs>
	<mask maskUnits="userSpaceOnUse" x="1.023" y="1" width="77.953" height="78" id="OVERLAY_2_">
		<g filter="url(#Adobe_OpacityMaskFilter)">
			<defs>
				<filter id="Adobe_OpacityMaskFilter_1_" filterUnits="userSpaceOnUse" x="1.023" y="1" width="77.953" height="78">
					<feFlood  style="flood-color:white;flood-opacity:1" result="back"/>
					<feBlend  in="SourceGraphic" in2="back" mode="normal"/>
				</filter>
			</defs>
			<mask maskUnits="userSpaceOnUse" x="1.023" y="1" width="77.953" height="78" id="OVERLAY_2_">
				<g filter="url(#Adobe_OpacityMaskFilter_1_)">
				</g>
			</mask>
			<linearGradient id="OVERLAY_3_" gradientUnits="userSpaceOnUse" x1="39.9995" y1="5.1816" x2="39.9995" y2="58.8019">
				<stop  offset="0" style="stop-color:#FFFFFF"/>
				<stop  offset="1" style="stop-color:#D6D6D6"/>
			</linearGradient>
			<path id="OVERLAY_1_" mask="url(#OVERLAY_2_)" fill="url(#OVERLAY_3_)" d="M78.977,40c0,28.893-10.1,39-38.977,39
				S1.023,68.893,1.023,40c0-28.894,10.1-39,38.977-39S78.977,11.106,78.977,40z"/>
		</g>
	</mask>
	<linearGradient id="OVERLAY_4_" gradientUnits="userSpaceOnUse" x1="39.9995" y1="5.1816" x2="39.9995" y2="58.8019">
		<stop  offset="0" style="stop-color:#FFFFFF"/>
		<stop  offset="1" style="stop-color:#000000"/>
	</linearGradient>
	<path id="OVERLAY" opacity="0.5" fill="url(#OVERLAY_4_)" d="M78.977,40c0,28.893-10.1,39-38.977,39S1.023,68.893,1.023,40
		c0-28.894,10.1-39,38.977-39S78.977,11.106,78.977,40z"/>
	<defs>
		<filter id="Adobe_OpacityMaskFilter_2_" filterUnits="userSpaceOnUse" x="1" y="1" width="78" height="78">
			<feFlood  style="flood-color:white;flood-opacity:1" result="back"/>
			<feBlend  in="SourceGraphic" in2="back" mode="normal"/>
		</filter>
	</defs>
	<mask maskUnits="userSpaceOnUse" x="1" y="1" width="78" height="78" id="HIGHLIGHT_2_">
		<g filter="url(#Adobe_OpacityMaskFilter_2_)">
			<defs>
				<filter id="Adobe_OpacityMaskFilter_3_" filterUnits="userSpaceOnUse" x="1" y="1" width="78" height="78">
					<feFlood  style="flood-color:white;flood-opacity:1" result="back"/>
					<feBlend  in="SourceGraphic" in2="back" mode="normal"/>
				</filter>
			</defs>
			<mask maskUnits="userSpaceOnUse" x="1" y="1" width="78" height="78" id="HIGHLIGHT_2_">
				<g filter="url(#Adobe_OpacityMaskFilter_3_)">
				</g>
			</mask>
			<linearGradient id="HIGHLIGHT_3_" gradientUnits="userSpaceOnUse" x1="39.9995" y1="1.2471" x2="39.9995" y2="78.5111">
				<stop  offset="0" style="stop-color:#FFFFFF"/>
				<stop  offset="1" style="stop-color:#000000"/>
			</linearGradient>
			<path id="HIGHLIGHT_1_" mask="url(#HIGHLIGHT_2_)" fill="url(#HIGHLIGHT_3_)" d="M39.999,1C11.105,1,1,11.106,1,40
				c0,28.893,10.105,39,38.999,39C68.896,79,79,68.893,79,40C79,11.106,68.896,1,39.999,1z M39.999,78.025
				C11.57,78.025,1.976,68.43,1.976,40c0-28.429,9.595-38.024,38.023-38.024c28.43,0,38.024,9.596,38.024,38.024
				C78.023,68.43,68.429,78.025,39.999,78.025z"/>
		</g>
	</mask>
	<linearGradient id="HIGHLIGHT_4_" gradientUnits="userSpaceOnUse" x1="39.9995" y1="1.2471" x2="39.9995" y2="78.5111">
		<stop  offset="0" style="stop-color:#FFFFFF"/>
		<stop  offset="1" style="stop-color:#FFFFFF"/>
	</linearGradient>
	<path id="HIGHLIGHT" opacity="0.25" fill="url(#HIGHLIGHT_4_)" d="M39.999,1C11.105,1,1,11.106,1,40c0,28.893,10.105,39,38.999,39
		C68.896,79,79,68.893,79,40C79,11.106,68.896,1,39.999,1z M39.999,78.025C11.57,78.025,1.976,68.43,1.976,40
		c0-28.429,9.595-38.024,38.023-38.024c28.43,0,38.024,9.596,38.024,38.024C78.023,68.43,68.429,78.025,39.999,78.025z"/>
</g>
<g id="PLACE_YOUR_GLYPH_HERE">
	<g display="none">
		
			<line display="inline" fill="none" stroke="#000000" stroke-width="2" stroke-miterlimit="10" x1="32.107" y1="17.901" x2="32.107" y2="63.199"/>
		
			<line display="inline" fill="none" stroke="#000000" stroke-width="2" stroke-miterlimit="10" x1="47.207" y1="17.901" x2="47.207" y2="63.199"/>
		
			<line display="inline" fill="none" stroke="#000000" stroke-width="2" stroke-miterlimit="10" x1="17.008" y1="33" x2="62.305" y2="33"/>
		
			<line display="inline" fill="none" stroke="#000000" stroke-width="2" stroke-miterlimit="10" x1="17.008" y1="48.1" x2="62.305" y2="48.1"/>
	</g>
	<g display="none">
		<g display="inline">
			<linearGradient id="SVGID_1_" gradientUnits="userSpaceOnUse" x1="40.063" y1="24.1724" x2="40.063" y2="72.0094">
				<stop  offset="0.3232" style="stop-color:#F7FAEE"/>
				<stop  offset="1" style="stop-color:#D2CAC5"/>
			</linearGradient>
			<path fill="url(#SVGID_1_)" d="M20.726,31.197c-1.718,0-3.111-1.393-3.111-3.111v-7.361c0-1.718,1.393-3.111,3.111-3.111h7.361
				c1.718,0,3.111,1.393,3.111,3.111v7.361c0,1.718-1.393,3.111-3.111,3.111H20.726z"/>
			<linearGradient id="SVGID_2_" gradientUnits="userSpaceOnUse" x1="40.063" y1="24.1724" x2="40.063" y2="72.0094">
				<stop  offset="0.3232" style="stop-color:#F7FAEE"/>
				<stop  offset="1" style="stop-color:#D2CAC5"/>
			</linearGradient>
			<path fill="url(#SVGID_2_)" d="M36.382,31.197c-1.718,0-3.111-1.393-3.111-3.111v-7.361c0-1.718,1.393-3.111,3.111-3.111h7.363
				c1.719,0,3.11,1.393,3.11,3.111v7.361c0,1.718-1.392,3.111-3.11,3.111H36.382z"/>
			<linearGradient id="SVGID_3_" gradientUnits="userSpaceOnUse" x1="40.063" y1="24.1724" x2="40.063" y2="72.0094">
				<stop  offset="0.3232" style="stop-color:#F7FAEE"/>
				<stop  offset="1" style="stop-color:#D2CAC5"/>
			</linearGradient>
			<path fill="url(#SVGID_3_)" d="M52.039,31.197c-1.719,0-3.11-1.393-3.11-3.111v-7.361c0-1.718,1.392-3.111,3.11-3.111h7.362
				c1.719,0,3.11,1.393,3.11,3.111v7.361c0,1.718-1.392,3.111-3.11,3.111H52.039z"/>
			<linearGradient id="SVGID_4_" gradientUnits="userSpaceOnUse" x1="40.063" y1="24.1724" x2="40.063" y2="72.0094">
				<stop  offset="0.3232" style="stop-color:#F7FAEE"/>
				<stop  offset="1" style="stop-color:#D2CAC5"/>
			</linearGradient>
			<path fill="url(#SVGID_4_)" d="M20.726,46.854c-1.718,0-3.111-1.393-3.111-3.11v-7.362c0-1.718,1.393-3.111,3.111-3.111h7.361
				c1.718,0,3.111,1.393,3.111,3.111v7.362c0,1.718-1.393,3.11-3.111,3.11H20.726z"/>
			<linearGradient id="SVGID_5_" gradientUnits="userSpaceOnUse" x1="40.063" y1="24.1724" x2="40.063" y2="72.0094">
				<stop  offset="0.3232" style="stop-color:#F7FAEE"/>
				<stop  offset="1" style="stop-color:#D2CAC5"/>
			</linearGradient>
			<path fill="url(#SVGID_5_)" d="M36.382,46.854c-1.718,0-3.111-1.393-3.111-3.11v-7.362c0-1.718,1.393-3.111,3.111-3.111h7.363
				c1.719,0,3.11,1.393,3.11,3.111v7.362c0,1.718-1.392,3.11-3.11,3.11H36.382z"/>
			<linearGradient id="SVGID_6_" gradientUnits="userSpaceOnUse" x1="40.063" y1="24.1724" x2="40.063" y2="72.0094">
				<stop  offset="0.3232" style="stop-color:#F7FAEE"/>
				<stop  offset="1" style="stop-color:#D2CAC5"/>
			</linearGradient>
			<path fill="url(#SVGID_6_)" d="M52.039,46.854c-1.719,0-3.11-1.393-3.11-3.11v-7.362c0-1.718,1.392-3.111,3.11-3.111h7.362
				c1.719,0,3.11,1.393,3.11,3.111v7.362c0,1.718-1.392,3.11-3.11,3.11H52.039z"/>
			<linearGradient id="SVGID_7_" gradientUnits="userSpaceOnUse" x1="40.063" y1="24.1724" x2="40.063" y2="72.0094">
				<stop  offset="0.3232" style="stop-color:#F7FAEE"/>
				<stop  offset="1" style="stop-color:#D2CAC5"/>
			</linearGradient>
			<path fill="url(#SVGID_7_)" d="M20.726,62.512c-1.718,0-3.111-1.392-3.111-3.11v-7.362c0-1.719,1.393-3.11,3.111-3.11h7.361
				c1.718,0,3.111,1.392,3.111,3.11v7.362c0,1.719-1.393,3.11-3.111,3.11H20.726z"/>
			<linearGradient id="SVGID_8_" gradientUnits="userSpaceOnUse" x1="40.063" y1="24.1724" x2="40.063" y2="72.0094">
				<stop  offset="0.3232" style="stop-color:#F7FAEE"/>
				<stop  offset="1" style="stop-color:#D2CAC5"/>
			</linearGradient>
			<path fill="url(#SVGID_8_)" d="M36.382,62.512c-1.718,0-3.111-1.392-3.111-3.11v-7.362c0-1.719,1.393-3.11,3.111-3.11h7.363
				c1.719,0,3.11,1.392,3.11,3.11v7.362c0,1.719-1.392,3.11-3.11,3.11H36.382z"/>
			<linearGradient id="SVGID_9_" gradientUnits="userSpaceOnUse" x1="40.063" y1="24.1724" x2="40.063" y2="72.0094">
				<stop  offset="0.3232" style="stop-color:#F7FAEE"/>
				<stop  offset="1" style="stop-color:#D2CAC5"/>
			</linearGradient>
			<path fill="url(#SVGID_9_)" d="M52.039,62.512c-1.719,0-3.11-1.392-3.11-3.11v-7.362c0-1.719,1.392-3.11,3.11-3.11h7.362
				c1.719,0,3.11,1.392,3.11,3.11v7.362c0,1.719-1.392,3.11-3.11,3.11H52.039z"/>
		</g>
	</g>
	<g display="none">
		<linearGradient id="SVGID_10_" gradientUnits="userSpaceOnUse" x1="22.4663" y1="21.959" x2="22.4663" y2="78.0018">
			<stop  offset="0.3232" style="stop-color:#F7FAEE"/>
			<stop  offset="1" style="stop-color:#D2CAC5"/>
		</linearGradient>
		<path display="inline" fill="url(#SVGID_10_)" d="M31.233,14.276h-9.029c-4.697,0-8.504,3.807-8.504,8.504v9.029h17.533V14.276z"
			/>
		<linearGradient id="SVGID_11_" gradientUnits="userSpaceOnUse" x1="39.999" y1="21.959" x2="39.999" y2="78.0018">
			<stop  offset="0.3232" style="stop-color:#F7FAEE"/>
			<stop  offset="1" style="stop-color:#D2CAC5"/>
		</linearGradient>
		<rect x="31.233" y="14.276" display="inline" fill="url(#SVGID_11_)" width="17.533" height="17.533"/>
		<linearGradient id="SVGID_12_" gradientUnits="userSpaceOnUse" x1="57.5332" y1="21.959" x2="57.5332" y2="78.0018">
			<stop  offset="0.3232" style="stop-color:#F7FAEE"/>
			<stop  offset="1" style="stop-color:#D2CAC5"/>
		</linearGradient>
		<path display="inline" fill="url(#SVGID_12_)" d="M57.795,14.276h-9.028v17.533h17.532V22.78
			C66.299,18.083,62.491,14.276,57.795,14.276z"/>
		<linearGradient id="SVGID_13_" gradientUnits="userSpaceOnUse" x1="22.4663" y1="21.959" x2="22.4663" y2="78.0017">
			<stop  offset="0.3232" style="stop-color:#F7FAEE"/>
			<stop  offset="1" style="stop-color:#D2CAC5"/>
		</linearGradient>
		<rect x="13.7" y="31.809" display="inline" fill="url(#SVGID_13_)" width="17.533" height="17.533"/>
		<linearGradient id="SVGID_14_" gradientUnits="userSpaceOnUse" x1="39.999" y1="21.959" x2="39.999" y2="78.0017">
			<stop  offset="0.3232" style="stop-color:#F7FAEE"/>
			<stop  offset="1" style="stop-color:#D2CAC5"/>
		</linearGradient>
		<rect x="31.233" y="31.809" display="inline" fill="url(#SVGID_14_)" width="17.533" height="17.533"/>
		<linearGradient id="SVGID_15_" gradientUnits="userSpaceOnUse" x1="57.5332" y1="21.959" x2="57.5332" y2="78.0017">
			<stop  offset="0.3232" style="stop-color:#F7FAEE"/>
			<stop  offset="1" style="stop-color:#D2CAC5"/>
		</linearGradient>
		<rect x="48.767" y="31.809" display="inline" fill="url(#SVGID_15_)" width="17.532" height="17.533"/>
		<linearGradient id="SVGID_16_" gradientUnits="userSpaceOnUse" x1="22.4663" y1="21.959" x2="22.4663" y2="78.0018">
			<stop  offset="0.3232" style="stop-color:#F7FAEE"/>
			<stop  offset="1" style="stop-color:#D2CAC5"/>
		</linearGradient>
		<path display="inline" fill="url(#SVGID_16_)" d="M13.7,49.342v9.029c0,4.696,3.807,8.504,8.504,8.504h9.029V49.342H13.7z"/>
		<linearGradient id="SVGID_17_" gradientUnits="userSpaceOnUse" x1="39.999" y1="21.959" x2="39.999" y2="78.0018">
			<stop  offset="0.3232" style="stop-color:#F7FAEE"/>
			<stop  offset="1" style="stop-color:#D2CAC5"/>
		</linearGradient>
		<rect x="31.233" y="49.342" display="inline" fill="url(#SVGID_17_)" width="17.533" height="17.533"/>
		<linearGradient id="SVGID_18_" gradientUnits="userSpaceOnUse" x1="57.5332" y1="21.959" x2="57.5332" y2="78.0018">
			<stop  offset="0.3232" style="stop-color:#F7FAEE"/>
			<stop  offset="1" style="stop-color:#D2CAC5"/>
		</linearGradient>
		<path display="inline" fill="url(#SVGID_18_)" d="M48.767,66.875h9.028c4.696,0,8.504-3.808,8.504-8.504v-9.029H48.767V66.875z"/>
	</g>
	<g>
		<image overflow="visible" opacity="0.5" width="58" height="58" xlink:href="AEB0563B.png"  transform="matrix(1 0 0 1 11 13)">
		</image>
		<g>
			<g>
				<linearGradient id="SVGID_19_" gradientUnits="userSpaceOnUse" x1="24.5024" y1="23.6543" x2="24.5024" y2="67.5387">
					<stop  offset="0.3232" style="stop-color:#F7FAEE"/>
					<stop  offset="1" style="stop-color:#D2CAC5"/>
				</linearGradient>
				<path fill="url(#SVGID_19_)" d="M17.638,31.367v-7.096c0-3.657,2.976-6.633,6.633-6.633h7.096v13.729H17.638z"/>
				<linearGradient id="SVGID_20_" gradientUnits="userSpaceOnUse" x1="39.9995" y1="23.6543" x2="39.9995" y2="67.5387">
					<stop  offset="0.3232" style="stop-color:#F7FAEE"/>
					<stop  offset="1" style="stop-color:#D2CAC5"/>
				</linearGradient>
				<rect x="33.135" y="17.638" fill="url(#SVGID_20_)" width="13.729" height="13.729"/>
				<linearGradient id="SVGID_21_" gradientUnits="userSpaceOnUse" x1="55.4971" y1="23.6543" x2="55.4971" y2="67.5387">
					<stop  offset="0.3232" style="stop-color:#F7FAEE"/>
					<stop  offset="1" style="stop-color:#D2CAC5"/>
				</linearGradient>
				<path fill="url(#SVGID_21_)" d="M48.633,31.367V17.638h7.096c3.657,0,6.633,2.976,6.633,6.633v7.096H48.633z"/>
				<linearGradient id="SVGID_22_" gradientUnits="userSpaceOnUse" x1="24.5024" y1="25.4224" x2="24.5024" y2="69.3089">
					<stop  offset="0.3232" style="stop-color:#F7FAEE"/>
					<stop  offset="1" style="stop-color:#D2CAC5"/>
				</linearGradient>
				<rect x="17.638" y="33.135" fill="url(#SVGID_22_)" width="13.729" height="13.73"/>
				<linearGradient id="SVGID_23_" gradientUnits="userSpaceOnUse" x1="39.9995" y1="25.4224" x2="39.9995" y2="69.3089">
					<stop  offset="0.3232" style="stop-color:#F7FAEE"/>
					<stop  offset="1" style="stop-color:#D2CAC5"/>
				</linearGradient>
				<rect x="33.135" y="33.135" fill="url(#SVGID_23_)" width="13.729" height="13.73"/>
				<linearGradient id="SVGID_24_" gradientUnits="userSpaceOnUse" x1="55.4971" y1="25.4224" x2="55.4971" y2="69.3089">
					<stop  offset="0.3232" style="stop-color:#F7FAEE"/>
					<stop  offset="1" style="stop-color:#D2CAC5"/>
				</linearGradient>
				<rect x="48.633" y="33.135" fill="url(#SVGID_24_)" width="13.729" height="13.73"/>
				<linearGradient id="SVGID_25_" gradientUnits="userSpaceOnUse" x1="24.5024" y1="27.1904" x2="24.5024" y2="71.0751">
					<stop  offset="0.3232" style="stop-color:#F7FAEE"/>
					<stop  offset="1" style="stop-color:#D2CAC5"/>
				</linearGradient>
				<path fill="url(#SVGID_25_)" d="M24.271,62.362c-3.657,0-6.633-2.976-6.633-6.633v-7.097h13.729v13.729H24.271z"/>
				<linearGradient id="SVGID_26_" gradientUnits="userSpaceOnUse" x1="39.9995" y1="27.1904" x2="39.9995" y2="71.0751">
					<stop  offset="0.3232" style="stop-color:#F7FAEE"/>
					<stop  offset="1" style="stop-color:#D2CAC5"/>
				</linearGradient>
				<rect x="33.135" y="48.633" fill="url(#SVGID_26_)" width="13.729" height="13.729"/>
				<linearGradient id="SVGID_27_" gradientUnits="userSpaceOnUse" x1="55.4971" y1="27.1904" x2="55.4971" y2="71.0751">
					<stop  offset="0.3232" style="stop-color:#F7FAEE"/>
					<stop  offset="1" style="stop-color:#D2CAC5"/>
				</linearGradient>
				<path fill="url(#SVGID_27_)" d="M48.633,62.362V48.633h13.729v7.097c0,3.657-2.976,6.633-6.633,6.633H48.633z"/>
			</g>
		</g>
	</g>
	<g id="Layer_10" display="none">
		<path display="inline" fill="#633C18" d="M24.735,21.169h-0.028l-1.583,0.854l-0.238-0.938l1.989-1.064h1.051v9.105h-1.191V21.169
			z"/>
		<path display="inline" fill="#633C18" d="M55.713,44.615v-2.492h-4.23v-0.799l4.063-5.813h1.33v5.659h1.275v0.953h-1.275v2.492
			H55.713z M55.713,41.17v-3.04c0-0.477,0.014-0.953,0.042-1.429h-0.042c-0.28,0.532-0.504,0.924-0.757,1.345l-2.227,3.096v0.027
			H55.713z"/>
		<path display="inline" fill="#633C18" d="M43.243,35.511v0.813l-3.965,8.292h-1.274l3.95-8.054v-0.028H37.5v-1.022H43.243z"/>
		<path display="inline" fill="#633C18" d="M37.709,59.186c0.267,0.028,0.574,0,0.994-0.042c0.715-0.099,1.387-0.378,1.905-0.882
			c0.603-0.547,1.037-1.346,1.205-2.41h-0.042c-0.505,0.617-1.233,0.967-2.157,0.967c-1.625,0-2.676-1.232-2.676-2.787
			c0-1.723,1.247-3.236,3.109-3.236c1.863,0,3.012,1.499,3.012,3.853c0,1.989-0.672,3.39-1.568,4.259
			c-0.7,0.686-1.667,1.105-2.647,1.218c-0.448,0.07-0.841,0.085-1.135,0.07V59.186z M38.157,53.961c0,1.135,0.687,1.934,1.751,1.934
			c0.826,0,1.471-0.406,1.793-0.953c0.07-0.126,0.112-0.252,0.112-0.463c0-1.555-0.574-2.744-1.877-2.744
			C38.899,51.734,38.157,52.658,38.157,53.961z"/>
	</g>
	<text transform="matrix(1.0171 0 0 1 20.667 29.125)"><tspan x="0" y="0" fill="#313232" font-family="'NokiaPureText-Regular'" font-size="13">1 </tspan><tspan x="0" y="15.6" fill="#313232" font-family="'NokiaPureText-Regular'" font-size="13">    </tspan><tspan x="12.687" y="15.6" fill="#313232" font-family="'NokiaPureText-Regular'" font-size="11"> </tspan><tspan x="15.371" y="15.6" fill="#313232" font-family="'NokiaPureText-Regular'" font-size="13">7  </tspan><tspan x="29.411" y="15.6" fill="#313232" font-family="'NokiaPureText-Regular'" font-size="3"> </tspan><tspan x="30.143" y="15.6" fill="#313232" font-family="'NokiaPureText-Regular'" font-size="13">4  </tspan><tspan x="0" y="31.2" fill="#313232" font-family="'NokiaPureText-Regular'" font-size="13">    </tspan><tspan x="12.687" y="31.2" fill="#313232" font-family="'NokiaPureText-Regular'" font-size="8"> </tspan><tspan x="14.639" y="31.2" fill="#313232" font-family="'NokiaPureText-Regular'" font-size="2"> </tspan><tspan x="15.127" y="31.2" fill="#313232" font-family="'NokiaPureText-Regular'" font-size="13">9</tspan></text>
</g>
<g id="DO_NOT_EDIT_-_FOCAL_ZONE_GUIDES" display="none">
</g>
</svg>
